{
	"asset":{
		"generator":"Khronos glTF Blender I/O v3.6.27",
		"version":"2.0"
	},
	"scene":0,
	"scenes":[
		{
			"name":"Scene",
			"nodes":[
				0
			]
		}
	],
	"nodes":[
		{
			"mesh":0,
			"name":"Text",
			"rotation":[
				0.7071068286895752,
				0,
				0,
				0.7071068286895752
			],
			"scale":[
				-0.04253531992435455,
				-0.04253531992435455,
				-0.04253531992435455
			],
			"translation":[
				0.3231849670410156,
				0.5511257648468018,
				1.0727570056915283
			]
		}
	],
	"animations":[
		{
			"channels":[
				{
					"sampler":0,
					"target":{
						"node":0,
						"path":"translation"
					}
				},
				{
					"sampler":1,
					"target":{
						"node":0,
						"path":"rotation"
					}
				},
				{
					"sampler":2,
					"target":{
						"node":0,
						"path":"scale"
					}
				}
			],
			"name":"TextAction",
			"samplers":[
				{
					"input":8,
					"interpolation":"LINEAR",
					"output":9
				},
				{
					"input":8,
					"interpolation":"LINEAR",
					"output":10
				},
				{
					"input":8,
					"interpolation":"LINEAR",
					"output":11
				}
			]
		}
	],
	"materials":[
		{
			"doubleSided":true,
			"name":"Material.002",
			"pbrMetallicRoughness":{
				"baseColorFactor":[
					0.8000000715255737,
					0.22508159279823303,
					0,
					1
				],
				"metallicFactor":0.6614173650741577,
				"roughnessFactor":0.10629920661449432
			}
		},
		{
			"doubleSided":true,
			"name":"Material.003",
			"pbrMetallicRoughness":{
				"baseColorFactor":[
					0,
					0.30992698669433594,
					0.8000000715255737,
					1
				],
				"metallicFactor":0,
				"roughnessFactor":0.5
			}
		}
	],
	"meshes":[
		{
			"name":"Text",
			"primitives":[
				{
					"attributes":{
						"POSITION":0,
						"NORMAL":1,
						"TEXCOORD_0":2
					},
					"indices":3,
					"material":0
				},
				{
					"attributes":{
						"POSITION":4,
						"NORMAL":5,
						"TEXCOORD_0":6
					},
					"indices":7,
					"material":1
				}
			]
		}
	],
	"accessors":[
		{
			"bufferView":0,
			"componentType":5126,
			"count":4380,
			"max":[
				1.1149989366531372,
				0.059999980032444,
				0.2591012716293335
			],
			"min":[
				-1.1150001287460327,
				-0.059999980032444,
				-0.2591012716293335
			],
			"type":"VEC3"
		},
		{
			"bufferView":1,
			"componentType":5126,
			"count":4380,
			"type":"VEC3"
		},
		{
			"bufferView":2,
			"componentType":5126,
			"count":4380,
			"type":"VEC2"
		},
		{
			"bufferView":3,
			"componentType":5123,
			"count":13056,
			"type":"SCALAR"
		},
		{
			"bufferView":4,
			"componentType":5126,
			"count":4380,
			"max":[
				1.1250008344650269,
				0.039999984204769135,
				0.2707767188549042
			],
			"min":[
				-1.1250001192092896,
				-0.039999984204769135,
				-0.2691047489643097
			],
			"type":"VEC3"
		},
		{
			"bufferView":5,
			"componentType":5126,
			"count":4380,
			"type":"VEC3"
		},
		{
			"bufferView":6,
			"componentType":5126,
			"count":4380,
			"type":"VEC2"
		},
		{
			"bufferView":7,
			"componentType":5123,
			"count":13056,
			"type":"SCALAR"
		},
		{
			"bufferView":8,
			"componentType":5126,
			"count":135,
			"max":[
				5.625
			],
			"min":[
				0.041666666666666664
			],
			"type":"SCALAR"
		},
		{
			"bufferView":9,
			"componentType":5126,
			"count":135,
			"type":"VEC3"
		},
		{
			"bufferView":10,
			"componentType":5126,
			"count":135,
			"type":"VEC4"
		},
		{
			"bufferView":11,
			"componentType":5126,
			"count":135,
			"type":"VEC3"
		}
	],
	"bufferViews":[
		{
			"buffer":0,
			"byteLength":52560,
			"byteOffset":0,
			"target":34962
		},
		{
			"buffer":0,
			"byteLength":52560,
			"byteOffset":52560,
			"target":34962
		},
		{
			"buffer":0,
			"byteLength":35040,
			"byteOffset":105120,
			"target":34962
		},
		{
			"buffer":0,
			"byteLength":26112,
			"byteOffset":140160,
			"target":34963
		},
		{
			"buffer":0,
			"byteLength":52560,
			"byteOffset":166272,
			"target":34962
		},
		{
			"buffer":0,
			"byteLength":52560,
			"byteOffset":218832,
			"target":34962
		},
		{
			"buffer":0,
			"byteLength":35040,
			"byteOffset":271392,
			"target":34962
		},
		{
			"buffer":0,
			"byteLength":26112,
			"byteOffset":306432,
			"target":34963
		},
		{
			"buffer":0,
			"byteLength":540,
			"byteOffset":332544
		},
		{
			"buffer":0,
			"byteLength":1620,
			"byteOffset":333084
		},
		{
			"buffer":0,
			"byteLength":2160,
			"byteOffset":334704
		},
		{
			"buffer":0,
			"byteLength":1620,
			"byteOffset":336864
		}
	],
	"buffers":[
		{
			"byteLength":338484,
			"uri":"data:application/octet-stream;base64,"
		}
	]
}
