{
	"asset":{
		"generator":"Khronos glTF Blender I/O v3.6.28",
		"version":"2.0"
	},
	"extensionsUsed":[
		"KHR_materials_specular",
		"KHR_materials_ior"
	],
	"scene":0,
	"scenes":[
		{
			"name":"Scene",
			"nodes":[
				0,
				1,
				2,
				3,
				4,
				5
			]
		}
	],
	"nodes":[
		{
			"mesh":0,
			"name":"\u041e\u043a\u0440\u0443\u0436\u043d\u043e\u0441\u0442\u044c.007",
			"translation":[
				0.0010402202606201172,
				0.09553445875644684,
				0
			]
		},
		{
			"mesh":1,
			"name":"\u041e\u043a\u0440\u0443\u0436\u043d\u043e\u0441\u0442\u044c.006",
			"translation":[
				0.0010402202606201172,
				-0.07519612461328506,
				0
			]
		},
		{
			"mesh":2,
			"name":"\u041a\u0443\u0431.070",
			"translation":[
				0.0010402202606201172,
				0.037756167352199554,
				0
			]
		},
		{
			"mesh":3,
			"name":"Cube.011",
			"translation":[
				0.0010402202606201172,
				0.1166970357298851,
				0
			]
		},
		{
			"mesh":4,
			"name":"Cube.010",
			"translation":[
				0.0010402202606201172,
				-0.025602255016565323,
				0
			]
		},
		{
			"mesh":5,
			"name":"Cube.009",
			"translation":[
				0.0010402202606201172,
				-0.09170158207416534,
				0
			]
		}
	],
	"animations":[
		{
			"channels":[
				{
					"sampler":0,
					"target":{
						"node":0,
						"path":"translation"
					}
				},
				{
					"sampler":1,
					"target":{
						"node":0,
						"path":"rotation"
					}
				},
				{
					"sampler":2,
					"target":{
						"node":0,
						"path":"scale"
					}
				}
			],
			"name":"Action.001",
			"samplers":[
				{
					"input":24,
					"interpolation":"LINEAR",
					"output":25
				},
				{
					"input":26,
					"interpolation":"STEP",
					"output":27
				},
				{
					"input":26,
					"interpolation":"STEP",
					"output":28
				}
			]
		},
		{
			"channels":[
				{
					"sampler":0,
					"target":{
						"node":1,
						"path":"translation"
					}
				},
				{
					"sampler":1,
					"target":{
						"node":1,
						"path":"rotation"
					}
				},
				{
					"sampler":2,
					"target":{
						"node":1,
						"path":"scale"
					}
				}
			],
			"name":"Action.002",
			"samplers":[
				{
					"input":24,
					"interpolation":"LINEAR",
					"output":29
				},
				{
					"input":26,
					"interpolation":"STEP",
					"output":30
				},
				{
					"input":26,
					"interpolation":"STEP",
					"output":31
				}
			]
		},
		{
			"channels":[
				{
					"sampler":0,
					"target":{
						"node":2,
						"path":"translation"
					}
				},
				{
					"sampler":1,
					"target":{
						"node":2,
						"path":"rotation"
					}
				},
				{
					"sampler":2,
					"target":{
						"node":2,
						"path":"scale"
					}
				}
			],
			"name":"Action.003",
			"samplers":[
				{
					"input":24,
					"interpolation":"LINEAR",
					"output":32
				},
				{
					"input":26,
					"interpolation":"STEP",
					"output":33
				},
				{
					"input":26,
					"interpolation":"STEP",
					"output":34
				}
			]
		},
		{
			"channels":[
				{
					"sampler":0,
					"target":{
						"node":3,
						"path":"translation"
					}
				},
				{
					"sampler":1,
					"target":{
						"node":3,
						"path":"rotation"
					}
				},
				{
					"sampler":2,
					"target":{
						"node":3,
						"path":"scale"
					}
				}
			],
			"name":"Action.004",
			"samplers":[
				{
					"input":24,
					"interpolation":"LINEAR",
					"output":35
				},
				{
					"input":26,
					"interpolation":"STEP",
					"output":36
				},
				{
					"input":26,
					"interpolation":"STEP",
					"output":37
				}
			]
		},
		{
			"channels":[
				{
					"sampler":0,
					"target":{
						"node":4,
						"path":"translation"
					}
				},
				{
					"sampler":1,
					"target":{
						"node":4,
						"path":"rotation"
					}
				},
				{
					"sampler":2,
					"target":{
						"node":4,
						"path":"scale"
					}
				}
			],
			"name":"Action.005",
			"samplers":[
				{
					"input":24,
					"interpolation":"LINEAR",
					"output":38
				},
				{
					"input":26,
					"interpolation":"STEP",
					"output":39
				},
				{
					"input":26,
					"interpolation":"STEP",
					"output":40
				}
			]
		},
		{
			"channels":[
				{
					"sampler":0,
					"target":{
						"node":5,
						"path":"translation"
					}
				},
				{
					"sampler":1,
					"target":{
						"node":5,
						"path":"rotation"
					}
				},
				{
					"sampler":2,
					"target":{
						"node":5,
						"path":"scale"
					}
				}
			],
			"name":"Action.006",
			"samplers":[
				{
					"input":24,
					"interpolation":"LINEAR",
					"output":41
				},
				{
					"input":26,
					"interpolation":"STEP",
					"output":42
				},
				{
					"input":26,
					"interpolation":"STEP",
					"output":43
				}
			]
		}
	],
	"materials":[
		{
			"doubleSided":true,
			"name":"\u041c\u0430\u0442\u0435\u0440\u0438\u0430\u043b.043",
			"pbrMetallicRoughness":{
				"baseColorFactor":[
					0.8000000715255737,
					0.008440871722996235,
					0.03189550340175629,
					1
				],
				"metallicFactor":0,
				"roughnessFactor":0.5
			}
		},
		{
			"doubleSided":true,
			"name":"\u041c\u0430\u0442\u0435\u0440\u0438\u0430\u043b.044",
			"pbrMetallicRoughness":{
				"baseColorFactor":[
					0.05095107853412628,
					0.4958462715148926,
					0.0418643057346344,
					1
				],
				"metallicFactor":0,
				"roughnessFactor":0.5
			}
		},
		{
			"doubleSided":true,
			"name":"\u041c\u0430\u0442\u0435\u0440\u0438\u0430\u043b.048",
			"pbrMetallicRoughness":{
				"baseColorFactor":[
					0.8000000715255737,
					0.46288663148880005,
					0.04222353175282478,
					1
				],
				"metallicFactor":0.4000000059604645,
				"roughnessFactor":0.37272727489471436
			}
		},
		{
			"doubleSided":true,
			"extensions":{
				"KHR_materials_specular":{
					"specularColorFactor":[
						2.2096741535789324,
						2.2096741535789324,
						2.2096741535789324
					]
				},
				"KHR_materials_ior":{
					"ior":1.4500000476837158
				}
			},
			"name":"Material.007",
			"pbrMetallicRoughness":{
				"baseColorFactor":[
					0.47986045479774475,
					0.16791805624961853,
					0.04573380947113037,
					1
				],
				"metallicFactor":0,
				"roughnessFactor":0.2922435402870178
			}
		},
		{
			"doubleSided":true,
			"name":"\u041c\u0430\u0442\u0435\u0440\u0438\u0430\u043b.049",
			"pbrMetallicRoughness":{
				"baseColorFactor":[
					0.43503713607788086,
					0.1424439549446106,
					0.020257247611880302,
					1
				],
				"metallicFactor":0.48636361956596375,
				"roughnessFactor":0.34090909361839294
			}
		}
	],
	"meshes":[
		{
			"name":"\u041e\u043a\u0440\u0443\u0436\u043d\u043e\u0441\u0442\u044c.011",
			"primitives":[
				{
					"attributes":{
						"POSITION":0,
						"NORMAL":1,
						"TEXCOORD_0":2
					},
					"indices":3,
					"material":0
				}
			]
		},
		{
			"name":"\u041e\u043a\u0440\u0443\u0436\u043d\u043e\u0441\u0442\u044c.012",
			"primitives":[
				{
					"attributes":{
						"POSITION":4,
						"NORMAL":5,
						"TEXCOORD_0":6
					},
					"indices":7,
					"material":1
				}
			]
		},
		{
			"name":"\u041a\u0443\u0431.077",
			"primitives":[
				{
					"attributes":{
						"POSITION":8,
						"NORMAL":9,
						"TEXCOORD_0":10
					},
					"indices":11,
					"material":2
				}
			]
		},
		{
			"name":"Cube.022",
			"primitives":[
				{
					"attributes":{
						"POSITION":12,
						"NORMAL":13,
						"TEXCOORD_0":14
					},
					"indices":15,
					"material":3
				}
			]
		},
		{
			"name":"Cube.023",
			"primitives":[
				{
					"attributes":{
						"POSITION":16,
						"NORMAL":17,
						"TEXCOORD_0":18
					},
					"indices":19,
					"material":4
				}
			]
		},
		{
			"name":"Cube.024",
			"primitives":[
				{
					"attributes":{
						"POSITION":20,
						"NORMAL":21,
						"TEXCOORD_0":22
					},
					"indices":23,
					"material":3
				}
			]
		}
	],
	"accessors":[
		{
			"bufferView":0,
			"componentType":5126,
			"count":384,
			"max":[
				0.054467372596263885,
				0.004785717464983463,
				0.0542616993188858
			],
			"min":[
				-0.0496896356344223,
				-0.0006219642236828804,
				-0.049702227115631104
			],
			"type":"VEC3"
		},
		{
			"bufferView":1,
			"componentType":5126,
			"count":384,
			"type":"VEC3"
		},
		{
			"bufferView":2,
			"componentType":5126,
			"count":384,
			"type":"VEC2"
		},
		{
			"bufferView":3,
			"componentType":5123,
			"count":1116,
			"type":"SCALAR"
		},
		{
			"bufferView":4,
			"componentType":5126,
			"count":14082,
			"max":[
				0.06360550224781036,
				0.017520543187856674,
				0.06360550224781036
			],
			"min":[
				-0.06360550224781036,
				0.006284055765718222,
				-0.06360549479722977
			],
			"type":"VEC3"
		},
		{
			"bufferView":5,
			"componentType":5126,
			"count":14082,
			"type":"VEC3"
		},
		{
			"bufferView":6,
			"componentType":5126,
			"count":14082,
			"type":"VEC2"
		},
		{
			"bufferView":7,
			"componentType":5123,
			"count":81408,
			"type":"SCALAR"
		},
		{
			"bufferView":8,
			"componentType":5126,
			"count":3348,
			"max":[
				0.050255678594112396,
				0.03365146741271019,
				0.05063439905643463
			],
			"min":[
				-0.050255678594112396,
				0.012270951643586159,
				-0.050578538328409195
			],
			"type":"VEC3"
		},
		{
			"bufferView":9,
			"componentType":5126,
			"count":3348,
			"type":"VEC3"
		},
		{
			"bufferView":10,
			"componentType":5126,
			"count":3348,
			"type":"VEC2"
		},
		{
			"bufferView":11,
			"componentType":5123,
			"count":18432,
			"type":"SCALAR"
		},
		{
			"bufferView":12,
			"componentType":5126,
			"count":1700,
			"max":[
				0.06032929569482803,
				0.0820026844739914,
				0.06216013431549072
			],
			"min":[
				-0.06032929569482803,
				0.020520612597465515,
				-0.062160130590200424
			],
			"type":"VEC3"
		},
		{
			"bufferView":13,
			"componentType":5126,
			"count":1700,
			"type":"VEC3"
		},
		{
			"bufferView":14,
			"componentType":5126,
			"count":1700,
			"type":"VEC2"
		},
		{
			"bufferView":15,
			"componentType":5123,
			"count":9216,
			"type":"SCALAR"
		},
		{
			"bufferView":16,
			"componentType":5126,
			"count":578,
			"max":[
				0.05525160953402519,
				0.035977911204099655,
				0.05472050607204437
			],
			"min":[
				-0.055251605808734894,
				0.013436623848974705,
				-0.05472050607204437
			],
			"type":"VEC3"
		},
		{
			"bufferView":17,
			"componentType":5126,
			"count":578,
			"type":"VEC3"
		},
		{
			"bufferView":18,
			"componentType":5126,
			"count":578,
			"type":"VEC2"
		},
		{
			"bufferView":19,
			"componentType":5123,
			"count":3072,
			"type":"SCALAR"
		},
		{
			"bufferView":20,
			"componentType":5126,
			"count":1650,
			"max":[
				0.058585915714502335,
				0.0020280161406844854,
				0.05939192324876785
			],
			"min":[
				-0.05858591943979263,
				-0.020417623221874237,
				-0.05939192324876785
			],
			"type":"VEC3"
		},
		{
			"bufferView":21,
			"componentType":5126,
			"count":1650,
			"type":"VEC3"
		},
		{
			"bufferView":22,
			"componentType":5126,
			"count":1650,
			"type":"VEC2"
		},
		{
			"bufferView":23,
			"componentType":5123,
			"count":9216,
			"type":"SCALAR"
		},
		{
			"bufferView":24,
			"componentType":5126,
			"count":110,
			"max":[
				4.583333333333333
			],
			"min":[
				0.041666666666666664
			],
			"type":"SCALAR"
		},
		{
			"bufferView":25,
			"componentType":5126,
			"count":110,
			"type":"VEC3"
		},
		{
			"bufferView":26,
			"componentType":5126,
			"count":2,
			"max":[
				4.583333333333333
			],
			"min":[
				0.041666666666666664
			],
			"type":"SCALAR"
		},
		{
			"bufferView":27,
			"componentType":5126,
			"count":2,
			"type":"VEC4"
		},
		{
			"bufferView":28,
			"componentType":5126,
			"count":2,
			"type":"VEC3"
		},
		{
			"bufferView":29,
			"componentType":5126,
			"count":110,
			"type":"VEC3"
		},
		{
			"bufferView":30,
			"componentType":5126,
			"count":2,
			"type":"VEC4"
		},
		{
			"bufferView":31,
			"componentType":5126,
			"count":2,
			"type":"VEC3"
		},
		{
			"bufferView":32,
			"componentType":5126,
			"count":110,
			"type":"VEC3"
		},
		{
			"bufferView":33,
			"componentType":5126,
			"count":2,
			"type":"VEC4"
		},
		{
			"bufferView":34,
			"componentType":5126,
			"count":2,
			"type":"VEC3"
		},
		{
			"bufferView":35,
			"componentType":5126,
			"count":110,
			"type":"VEC3"
		},
		{
			"bufferView":36,
			"componentType":5126,
			"count":2,
			"type":"VEC4"
		},
		{
			"bufferView":37,
			"componentType":5126,
			"count":2,
			"type":"VEC3"
		},
		{
			"bufferView":38,
			"componentType":5126,
			"count":110,
			"type":"VEC3"
		},
		{
			"bufferView":39,
			"componentType":5126,
			"count":2,
			"type":"VEC4"
		},
		{
			"bufferView":40,
			"componentType":5126,
			"count":2,
			"type":"VEC3"
		},
		{
			"bufferView":41,
			"componentType":5126,
			"count":110,
			"type":"VEC3"
		},
		{
			"bufferView":42,
			"componentType":5126,
			"count":2,
			"type":"VEC4"
		},
		{
			"bufferView":43,
			"componentType":5126,
			"count":2,
			"type":"VEC3"
		}
	],
	"bufferViews":[
		{
			"buffer":0,
			"byteLength":4608,
			"byteOffset":0,
			"target":34962
		},
		{
			"buffer":0,
			"byteLength":4608,
			"byteOffset":4608,
			"target":34962
		},
		{
			"buffer":0,
			"byteLength":3072,
			"byteOffset":9216,
			"target":34962
		},
		{
			"buffer":0,
			"byteLength":2232,
			"byteOffset":12288,
			"target":34963
		},
		{
			"buffer":0,
			"byteLength":168984,
			"byteOffset":14520,
			"target":34962
		},
		{
			"buffer":0,
			"byteLength":168984,
			"byteOffset":183504,
			"target":34962
		},
		{
			"buffer":0,
			"byteLength":112656,
			"byteOffset":352488,
			"target":34962
		},
		{
			"buffer":0,
			"byteLength":162816,
			"byteOffset":465144,
			"target":34963
		},
		{
			"buffer":0,
			"byteLength":40176,
			"byteOffset":627960,
			"target":34962
		},
		{
			"buffer":0,
			"byteLength":40176,
			"byteOffset":668136,
			"target":34962
		},
		{
			"buffer":0,
			"byteLength":26784,
			"byteOffset":708312,
			"target":34962
		},
		{
			"buffer":0,
			"byteLength":36864,
			"byteOffset":735096,
			"target":34963
		},
		{
			"buffer":0,
			"byteLength":20400,
			"byteOffset":771960,
			"target":34962
		},
		{
			"buffer":0,
			"byteLength":20400,
			"byteOffset":792360,
			"target":34962
		},
		{
			"buffer":0,
			"byteLength":13600,
			"byteOffset":812760,
			"target":34962
		},
		{
			"buffer":0,
			"byteLength":18432,
			"byteOffset":826360,
			"target":34963
		},
		{
			"buffer":0,
			"byteLength":6936,
			"byteOffset":844792,
			"target":34962
		},
		{
			"buffer":0,
			"byteLength":6936,
			"byteOffset":851728,
			"target":34962
		},
		{
			"buffer":0,
			"byteLength":4624,
			"byteOffset":858664,
			"target":34962
		},
		{
			"buffer":0,
			"byteLength":6144,
			"byteOffset":863288,
			"target":34963
		},
		{
			"buffer":0,
			"byteLength":19800,
			"byteOffset":869432,
			"target":34962
		},
		{
			"buffer":0,
			"byteLength":19800,
			"byteOffset":889232,
			"target":34962
		},
		{
			"buffer":0,
			"byteLength":13200,
			"byteOffset":909032,
			"target":34962
		},
		{
			"buffer":0,
			"byteLength":18432,
			"byteOffset":922232,
			"target":34963
		},
		{
			"buffer":0,
			"byteLength":440,
			"byteOffset":940664
		},
		{
			"buffer":0,
			"byteLength":1320,
			"byteOffset":941104
		},
		{
			"buffer":0,
			"byteLength":8,
			"byteOffset":942424
		},
		{
			"buffer":0,
			"byteLength":32,
			"byteOffset":942432
		},
		{
			"buffer":0,
			"byteLength":24,
			"byteOffset":942464
		},
		{
			"buffer":0,
			"byteLength":1320,
			"byteOffset":942488
		},
		{
			"buffer":0,
			"byteLength":32,
			"byteOffset":943808
		},
		{
			"buffer":0,
			"byteLength":24,
			"byteOffset":943840
		},
		{
			"buffer":0,
			"byteLength":1320,
			"byteOffset":943864
		},
		{
			"buffer":0,
			"byteLength":32,
			"byteOffset":945184
		},
		{
			"buffer":0,
			"byteLength":24,
			"byteOffset":945216
		},
		{
			"buffer":0,
			"byteLength":1320,
			"byteOffset":945240
		},
		{
			"buffer":0,
			"byteLength":32,
			"byteOffset":946560
		},
		{
			"buffer":0,
			"byteLength":24,
			"byteOffset":946592
		},
		{
			"buffer":0,
			"byteLength":1320,
			"byteOffset":946616
		},
		{
			"buffer":0,
			"byteLength":32,
			"byteOffset":947936
		},
		{
			"buffer":0,
			"byteLength":24,
			"byteOffset":947968
		},
		{
			"buffer":0,
			"byteLength":1320,
			"byteOffset":947992
		},
		{
			"buffer":0,
			"byteLength":32,
			"byteOffset":949312
		},
		{
			"buffer":0,
			"byteLength":24,
			"byteOffset":949344
		}
	],
	"buffers":[
		{
			"byteLength":949368,
			"uri":"data:application/octet-stream;base64,"
		}
	]
}
